{"title":"Jatt Airways (2013) DVDRip - XviD - 1CD - Esub - [DDR-Exclusive]","uid":9039675,"size":729747297,"categoryP":"video","categoryS":"movies","magnet":"?xt=urn:btih:8cc4fa07cc2552f1498d51c143fe7ed2d28a446f&amp;dn=Jatt+Airways+%282013%29+DVDRip+-+XviD+-+1CD+-+Esub+-+%5BDDR-Exclusive%5D&amp;tr=udp%3A%2F%2Ftracker.openbittorrent.com%3A80&amp;tr=udp%3A%2F%2Fopen.demonii.com%3A1337&amp;tr=udp%3A%2F%2Ftracker.coppersurfer.tk%3A6969&amp;tr=udp%3A%2F%2Fexodus.desync.com%3A6969","seeders":3,"leechers":0,"uploader":"SaM","files":-1,"time":1381595006,"description":"---------------------------------------------------------------------------------------------------------------------------------------\nMovie Info\n---------------------------------------------------------------------------------------------------------------------------------------\n\nMovie Name : Jatt Airways\nStarring : Alfaaz, Karamjit Anmol, Rana Jang Bahadar, Jaswinder Bhalla, B.N. Sharma, Binu Dhillon\nDirected : Harjit Singh Ricky\nProducer : Sumit Goyal, Anil Garg\nIMDB Ratings: 6.0/10 from 30 users\nIMDB : Jatt Airways (2013) - IMDb\nMovie Release Date : 30 Aug 2013\nRipper : AnMoL\nSource : DVD9 My Own Collection\nAudio : Punjabi\nSubtitle : English\n\n---------------------------------------------------------------------------------------------------------------------------------------\nTech Info\n---------------------------------------------------------------------------------------------------------------------------------------\n\nFormat : AVI\nFormat/Info : Audio Video Interleave\nFile size : 696 MiB\nDuration : 2h 16mn\nOverall bit rate : 715 Kbps\n\nVideo\nCodec ID/Hint : XviD\nDuration : 2h 16mn\nBit rate : 626 Kbps\nWidth : 640 pixels\nHeight : 256 pixels\nDisplay aspect ratio : 2.500\nFrame rate : 23.976 fps\nColor space : YUV\nChroma subsampling : 4:2:0\nBit depth : 8 bits\nScan type : Progressive\nCompression mode : Lossy\nBits/(Pixel*Frame) : 0.159\nStream size : 609 MiB (88%)\n\nAudio\nID : 1\nFormat : MPEG Audio\nFormat version : Version 1\nFormat profile : Layer 3\nMode : Joint stereo\nMode extension : MS Stereo\nCodec ID : 55\nCodec ID/Hint : MP3\nDuration : 2h 16mn\nBit rate mode : Constant\nBit rate : 80.0 Kbps\nChannel(s) : 2 channels\nSampling rate : 32.0 KHz\nCompression mode : Lossy\nStream size : 77.8 MiB (11%)\n\n---------------------------------------------------------------------------------------------------------------------------------------\nScreen Shot\n---------------------------------------------------------------------------------------------------------------------------------------\n &lt;a href=&quot;\nhttp://imageshack.us/a/img34/3021/eu17.png&quot; rel=&quot;nofollow&quot; target=&quot;_NEW&quot;&gt;\nhttp://imageshack.us/a/img34/3021/eu17.png&lt;/a&gt; &lt;a href=&quot;\nhttp://imageshack.us/a/img692/4372/229f.png&quot; rel=&quot;nofollow&quot; target=&quot;_NEW&quot;&gt;\nhttp://imageshack.us/a/img692/4372/229f.png&lt;/a&gt; &lt;a href=&quot;\nhttp://imageshack.us/a/img89/746/6ntm.png&quot; rel=&quot;nofollow&quot; target=&quot;_NEW&quot;&gt;\nhttp://imageshack.us/a/img89/746/6ntm.png&lt;/a&gt; &lt;a href=&quot;\nhttp://imageshack.us/a/img841/189/zq2u.png&quot; rel=&quot;nofollow&quot; target=&quot;_NEW&quot;&gt;\nhttp://imageshack.us/a/img841/189/zq2u.png&lt;/a&gt; &lt;a href=&quot;\nhttp://imageshack.us/a/img198/9536/7sbk.png&quot; rel=&quot;nofollow&quot; target=&quot;_NEW&quot;&gt;\nhttp://imageshack.us/a/img198/9536/7sbk.png&lt;/a&gt; &lt;a href=&quot;\nhttp://imageshack.us/a/img809/9655/gox5.png&quot; rel=&quot;nofollow&quot; target=&quot;_NEW&quot;&gt;\nhttp://imageshack.us/a/img809/9655/gox5.png&lt;/a&gt; &lt;a href=&quot;\nhttp://imageshack.us/a/img203/5958/r0kz.png&quot; rel=&quot;nofollow&quot; target=&quot;_NEW&quot;&gt;\nhttp://imageshack.us/a/img203/5958/r0kz.png&lt;/a&gt;\n","torrent":{"xt":"urn:btih:8cc4fa07cc2552f1498d51c143fe7ed2d28a446f","amp;dn":"Jatt+Airways+%282013%29+DVDRip+-+XviD+-+1CD+-+Esub+-+%5BDDR-Exclusive%5D","amp;tr":["udp%3A%2F%2Ftracker.openbittorrent.com%3A80","udp%3A%2F%2Fopen.demonii.com%3A1337","udp%3A%2F%2Ftracker.coppersurfer.tk%3A6969","udp%3A%2F%2Fexodus.desync.com%3A6969"],"infoHash":"8cc4fa07cc2552f1498d51c143fe7ed2d28a446f","infoHashBuffer":{"type":"Buffer","data":[140,196,250,7,204,37,82,241,73,141,81,193,67,254,126,210,210,138,68,111]},"announce":[],"urlList":[]}}